<svg xmlns="http://www.w3.org/2000/svg" viewBox="0 0 64 64" role="img" aria-label="TurboTurtle icon">
  <defs>
    <linearGradient id="bg" x1="0" y1="0" x2="1" y2="1">
      <stop offset="0%" stop-color="#0f1626" />
      <stop offset="100%" stop-color="#09111c" />
    </linearGradient>
    <radialGradient id="shine" cx="38%" cy="24%" r="75%">
      <stop offset="0%" stop-color="#244b97" stop-opacity="0.42" />
      <stop offset="100%" stop-color="#244b97" stop-opacity="0" />
    </radialGradient>
    <linearGradient id="mark" x1="0" y1="0" x2="1" y2="1">
      <stop offset="0%" stop-color="#f8fbff" />
      <stop offset="100%" stop-color="#d7e6ff" />
    </linearGradient>
  </defs>
  <rect x="2" y="2" width="60" height="60" rx="16" fill="url(#bg)" />
  <rect x="2" y="2" width="60" height="60" rx="16" fill="url(#shine)" />
  <rect x="2.5" y="2.5" width="59" height="59" rx="16" fill="none" stroke="#284579" stroke-opacity="0.75" />
  <path
    d="M32 21c7.5 0 12.8 6.3 12.8 14.6 0 6.8-4 12.5-12.8 17.2-8.8-4.7-12.8-10.4-12.8-17.2C19.2 27.3 24.5 21 32 21Z"
    fill="url(#mark)"
  />
  <path d="M28.2 13.8c4.4 0 7.7 3 7.7 6.9 0 3.1-1.8 4.8-4.2 6.5-3.2 2.2-4.7 4.7-4.7 10.1" fill="none" stroke="url(#mark)" stroke-linecap="round" stroke-linejoin="round" stroke-width="5" />
  <path d="M32 52.4 29.2 57h5.6z" fill="url(#mark)" />
</svg>
