<svg xmlns="http://www.w3.org/2000/svg" viewBox="0 0 64 64" role="img" aria-label="TurboTurtle icon">
  <defs>
    <linearGradient id="bg" x1="0" y1="0" x2="1" y2="1">
      <stop offset="0%" stop-color="#4f8fff" />
      <stop offset="100%" stop-color="#1847b7" />
    </linearGradient>
    <radialGradient id="shine" cx="34%" cy="22%" r="70%">
      <stop offset="0%" stop-color="#8eb8ff" stop-opacity="0.5" />
      <stop offset="100%" stop-color="#8eb8ff" stop-opacity="0" />
    </radialGradient>
  </defs>
  <rect x="2" y="2" width="60" height="60" rx="16" fill="url(#bg)" />
  <rect x="2" y="2" width="60" height="60" rx="16" fill="url(#shine)" />
  <g fill="#f7fbff">
    <rect x="29" y="19" width="6" height="10" rx="3" />
    <circle cx="32" cy="16.5" r="5.5" />
    <ellipse cx="32" cy="35" rx="11.5" ry="15.5" />
    <ellipse cx="18.5" cy="31.5" rx="4.5" ry="8.5" transform="rotate(-28 18.5 31.5)" />
    <ellipse cx="45.5" cy="31.5" rx="4.5" ry="8.5" transform="rotate(28 45.5 31.5)" />
    <ellipse cx="24.5" cy="50" rx="4.2" ry="7.4" transform="rotate(18 24.5 50)" />
    <ellipse cx="39.5" cy="50" rx="4.2" ry="7.4" transform="rotate(-18 39.5 50)" />
    <path d="M32 50.5 28.4 57h7.2z" />
  </g>
</svg>
