<svg xmlns="http://www.w3.org/2000/svg" width="173" height="55" viewBox="0 0 173 55" fill="none"><path d="M20.9586 19.3867C20.7128 19.3867 20.4787 19.2718 20.3276 19.0718L6.92502 1.26514C6.7452 1.02573 6.71541 0.705456 6.84948 0.437319C6.98355 0.169182 7.25702 0 7.55601 0H27.7248C27.9844 0 28.227 0.127685 28.375 0.341556C28.5229 0.555427 28.5547 0.827819 28.4632 1.07042L21.696 18.8771C21.5938 19.1463 21.3534 19.3378 21.0693 19.3782C21.032 19.3835 20.9948 19.3857 20.9586 19.3857V19.3867ZM9.13929 1.58009L20.7298 16.9788L26.582 1.58009H9.14038H9.13929Z" fill="#EF7B28"></path><path d="M20.9585 19.3868H0.789751C0.530126 19.3868 0.287489 19.2591 0.139588 19.0453C-0.00831332 18.8314 -0.0402427 18.559 0.0512644 18.3164L6.81854 0.509776C6.92069 0.240575 7.16117 0.0490491 7.44527 0.00861579C7.72937 -0.0318176 8.01455 0.0852269 8.18693 0.315059L21.5895 18.1217C21.7693 18.3611 21.7991 18.6814 21.6651 18.9495C21.531 19.2176 21.2575 19.3868 20.9585 19.3868ZM1.93359 17.8078H19.3753L7.78469 2.40908L1.9325 17.8078H1.93359Z" fill="#EF7B28"></path><path d="M34.3612 37.1931H14.1924C13.9445 37.1931 13.7104 37.0761 13.5614 36.8782L0.159884 19.0715C-0.0199377 18.8321 -0.0497266 18.5119 0.0843419 18.2437C0.21841 17.9756 0.491882 17.8064 0.790876 17.8064H20.9597C21.2076 17.8064 21.4417 17.9234 21.5906 18.1214L34.9922 35.928C35.172 36.1674 35.2018 36.4877 35.0677 36.7558C34.9337 37.0239 34.6602 37.1931 34.3612 37.1931ZM14.5861 35.6141H32.779L20.566 19.3865H2.37311L14.5861 35.6141Z" fill="#EF7B28"></path><path d="M41.1273 19.3867C40.8815 19.3867 40.6475 19.2718 40.4964 19.0718L27.0948 1.26514C26.915 1.02573 26.8852 0.705456 27.0193 0.437319C27.1533 0.169182 27.4268 0 27.7258 0H47.8946C48.1542 0 48.3968 0.127685 48.5447 0.341556C48.6926 0.555427 48.7245 0.827819 48.633 1.07042L41.8658 18.8771C41.7636 19.1463 41.5232 19.3378 41.2391 19.3782C41.2018 19.3835 41.1646 19.3857 41.1284 19.3857L41.1273 19.3867ZM29.308 1.58009L40.8975 16.9788L46.7497 1.58009H29.308Z" fill="#EF7B28"></path><path d="M41.1284 19.3868H20.9596C20.7 19.3868 20.4574 19.2591 20.3095 19.0453C20.1616 18.8314 20.1297 18.559 20.2212 18.3164L26.9885 0.509776C27.0906 0.240575 27.3311 0.0490491 27.6152 0.00861579C27.8993 -0.0318176 28.1834 0.0852269 28.3568 0.315059L41.7583 18.1217C41.9382 18.3611 41.968 18.6814 41.8339 18.9495C41.6998 19.2176 41.4263 19.3868 41.1274 19.3868H41.1284ZM22.1046 17.8078H39.5462L27.9567 2.40908L22.1046 17.8078Z" fill="#EF7B28"></path><path d="M54.53 37.1931H34.3612C34.1133 37.1931 33.8792 37.0761 33.7302 36.8782L20.3287 19.0715C20.1489 18.8321 20.1191 18.5119 20.2532 18.2437C20.3872 17.9756 20.6607 17.8064 20.9596 17.8064H41.1285C41.3764 17.8064 41.6105 17.9234 41.7595 18.1214L55.1621 35.928C55.3419 36.1674 55.3717 36.4877 55.2376 36.7558C55.1035 37.0239 54.8301 37.1931 54.5311 37.1931H54.53ZM34.7549 35.6141H52.9478L40.7337 19.3865H22.5408L34.7538 35.6141H34.7549Z" fill="#EF7B28"></path><path d="M27.5938 55C27.348 55 27.114 54.8851 26.9629 54.6851L13.5603 36.8784C13.3805 36.639 13.3506 36.3187 13.4847 36.0506C13.6188 35.7825 13.8923 35.6133 14.1912 35.6133H34.3601C34.6197 35.6133 34.8623 35.741 35.0102 35.9548C35.1581 36.1687 35.19 36.4411 35.0985 36.6837L28.3312 54.4903C28.2291 54.7595 27.9886 54.9511 27.7045 54.9915C27.6673 54.9968 27.63 54.9989 27.5938 54.9989V55ZM15.7745 37.1934L27.3651 52.5921L33.2173 37.1934H15.7756H15.7745Z" fill="#EF7B28"></path><path d="M27.5938 54.9999H7.42507C7.16545 54.9999 6.92286 54.8723 6.77496 54.6584C6.62706 54.4445 6.59513 54.1721 6.68664 53.9295L13.4539 36.1229C13.5561 35.8537 13.7965 35.6622 14.0806 35.6217C14.3647 35.5802 14.6488 35.6983 14.8223 35.9282L28.2248 53.7348C28.4047 53.9742 28.4345 54.2945 28.3004 54.5626C28.1663 54.8308 27.8928 54.9999 27.5938 54.9999ZM8.56891 53.4209H26.0106L14.42 38.0222L8.56782 53.4209H8.56891Z" fill="#EF7B28"></path><path d="M47.7627 55C47.5169 55 47.2828 54.8851 47.1317 54.6851L33.7302 36.8784C33.5504 36.639 33.5206 36.3187 33.6547 36.0506C33.7887 35.7825 34.0622 35.6133 34.3612 35.6133H54.53C54.7896 35.6133 55.0322 35.741 55.1801 35.9548C55.328 36.1687 55.36 36.4411 55.2684 36.6837L48.5012 54.4903C48.399 54.7595 48.1585 54.9511 47.8744 54.9915C47.8372 54.9968 47.8 54.9989 47.7638 54.9989L47.7627 55ZM35.9434 37.1934L47.5329 52.5921L53.3851 37.1934H35.9434Z" fill="#EF7B28"></path><path d="M47.7626 55.0001H27.5938C27.3342 55.0001 27.0916 54.8724 26.9437 54.6585C26.7958 54.4446 26.7638 54.1722 26.8553 53.9296L33.6226 36.123C33.7248 35.8538 33.9653 35.6623 34.2493 35.6218C34.5334 35.5814 34.8186 35.6995 34.991 35.9283L48.3925 53.7349C48.5723 53.9743 48.6021 54.2946 48.468 54.5627C48.334 54.8309 48.0605 55.0001 47.7615 55.0001H47.7626ZM28.7387 53.421H46.1804L34.5909 38.0223L28.7387 53.421Z" fill="#EF7B28"></path><path d="M74.3103 16.0137C74.9519 16.1264 75.4892 16.2829 75.9212 16.484C76.3532 16.6851 76.699 16.9383 76.9587 17.2448C77.2183 17.5523 77.4035 17.9151 77.5141 18.3354C77.6248 18.7557 77.6812 19.2409 77.6812 19.7921V20.074C77.6812 20.7507 77.595 21.3306 77.4215 21.8127C77.2481 22.2957 76.9587 22.6958 76.5512 23.0161C76.1437 23.3353 75.6063 23.5704 74.9402 23.7205C74.2731 23.8705 73.4527 23.946 72.477 23.946H70.5606C70.184 23.946 69.7584 23.9429 69.2828 23.9365C68.8071 23.9301 68.2677 23.9205 67.6622 23.9077L68.125 21.3892C69.0997 21.4147 69.9307 21.4264 70.616 21.4264H72.5142C72.9217 21.4264 73.258 21.4051 73.5229 21.3604C73.7878 21.3168 73.9986 21.2445 74.1528 21.1444C74.3071 21.0444 74.4125 20.9093 74.4678 20.7401C74.5231 20.5709 74.5508 20.3549 74.5508 20.0921C74.5508 19.8538 74.5348 19.6537 74.5051 19.4909C74.4742 19.3281 74.4061 19.193 74.3007 19.0866C74.1954 18.9802 74.0539 18.8919 73.8751 18.8238C73.6963 18.7546 73.458 18.695 73.1622 18.645L71.2182 18.3067C70.5021 18.1811 69.9158 18.0215 69.4594 17.8278C69.0029 17.6342 68.6411 17.3863 68.3762 17.0851C68.1102 16.784 67.9282 16.4276 67.8303 16.0137C67.7314 15.5998 67.6824 15.1177 67.6824 14.5666V14.2655C67.6824 13.6643 67.7686 13.1312 67.9421 12.6683C68.1144 12.2044 68.3985 11.8097 68.7943 11.4841C69.1891 11.1585 69.7052 10.9105 70.3404 10.7414C70.9756 10.5722 71.7502 10.4871 72.6642 10.4871H74.6731C75.037 10.4871 75.4329 10.4903 75.8585 10.4966C76.2841 10.503 76.7693 10.5126 77.312 10.5254L76.8491 13.0439C75.8861 13.0195 75.0679 13.0067 74.3954 13.0067H72.6089C72.2386 13.0067 71.9301 13.029 71.6832 13.0727C71.4364 13.1163 71.2448 13.1855 71.1086 13.2791C70.9724 13.3727 70.8767 13.5015 70.8213 13.6643C70.766 13.8271 70.7383 14.0282 70.7383 14.2655C70.7383 14.4783 70.7532 14.6602 70.7841 14.8102C70.815 14.9603 70.8766 15.0858 70.9692 15.1858C71.0618 15.2859 71.1948 15.371 71.3672 15.4401C71.5396 15.5093 71.7683 15.5689 72.0524 15.6189L74.3114 16.0137H74.3103Z" fill="#111111"></path><path d="M85.0326 24.2471C83.8717 24.2471 82.9056 24.1279 82.1341 23.8896C81.3627 23.6513 80.7456 23.2852 80.2827 22.7904C79.8199 22.2957 79.4921 21.6658 79.3017 20.9018C79.1101 20.1378 79.0144 19.2291 79.0144 18.1768V16.2222C79.0144 15.2071 79.107 14.3207 79.2921 13.5621C79.4772 12.8045 79.8018 12.1746 80.2646 11.6734C80.7275 11.1722 81.3446 10.7966 82.1161 10.5455C82.8875 10.2955 83.86 10.1699 85.0326 10.1699C86.2052 10.1699 87.1553 10.2891 87.9214 10.5274C88.6865 10.7658 89.3015 11.1318 89.7643 11.6266C90.2272 12.1214 90.5539 12.7481 90.7454 13.5057C90.9369 14.2643 91.0327 15.1688 91.0327 16.2222V18.1768C91.0327 19.2046 90.9401 20.0974 90.755 20.855C90.5698 21.6136 90.2485 22.2425 89.792 22.7436C89.3356 23.2448 88.7205 23.6204 87.9491 23.8715C87.1777 24.1216 86.2052 24.2471 85.0326 24.2471ZM85.0326 21.653C85.6125 21.653 86.0849 21.6094 86.4499 21.5211C86.8138 21.4338 87.101 21.2614 87.3107 21.0039C87.5203 20.7475 87.665 20.39 87.7459 19.9324C87.8257 19.4749 87.8661 18.8769 87.8661 18.1374V16.2764C87.8661 15.5497 87.8257 14.9549 87.7459 14.491C87.665 14.0271 87.5203 13.6706 87.3107 13.4195C87.1 13.1684 86.8138 12.996 86.4499 12.9024C86.086 12.8087 85.6136 12.7608 85.0326 12.7608C84.4516 12.7608 83.977 12.8045 83.6067 12.8928C83.2365 12.9811 82.946 13.1535 82.7364 13.4099C82.5268 13.6674 82.381 14.0239 82.3012 14.4814C82.2203 14.9389 82.1809 15.5369 82.1809 16.2764V18.1374C82.1809 18.8642 82.2214 19.4568 82.3012 19.9133C82.381 20.3708 82.5268 20.7283 82.7364 20.9848C82.946 21.2423 83.2365 21.4168 83.6067 21.5115C83.977 21.6051 84.4527 21.653 85.0326 21.653Z" fill="#111111"></path><path d="M96.0315 10.5254V21.2956H102.235L101.735 23.9078H92.9756V10.5254H96.0315Z" fill="#111111"></path><path d="M108.939 24.2471C107.778 24.2471 106.812 24.1279 106.041 23.8896C105.27 23.6513 104.652 23.2852 104.19 22.7904C103.727 22.2957 103.399 21.6658 103.208 20.9018C103.017 20.1378 102.921 19.2291 102.921 18.1768V16.2222C102.921 15.2071 103.014 14.3207 103.199 13.5621C103.384 12.8045 103.707 12.1746 104.171 11.6734C104.634 11.1722 105.251 10.7966 106.023 10.5455C106.794 10.2955 107.767 10.1699 108.939 10.1699C110.112 10.1699 111.062 10.2891 111.828 10.5274C112.593 10.7658 113.208 11.1318 113.671 11.6266C114.134 12.1214 114.461 12.7481 114.652 13.5057C114.844 14.2643 114.939 15.1688 114.939 16.2222V18.1768C114.939 19.2046 114.847 20.0974 114.662 20.855C114.477 21.6136 114.155 22.2425 113.699 22.7436C113.242 23.2448 112.627 23.6204 111.856 23.8715C111.084 24.1216 110.112 24.2471 108.939 24.2471ZM108.939 21.653C109.519 21.653 109.992 21.6094 110.356 21.5211C110.719 21.4338 111.007 21.2614 111.216 21.0039C111.426 20.7475 111.571 20.39 111.652 19.9324C111.731 19.4749 111.772 18.8769 111.772 18.1374V16.2764C111.772 15.5497 111.731 14.9549 111.652 14.491C111.571 14.0271 111.426 13.6706 111.216 13.4195C111.007 13.1684 110.719 12.996 110.356 12.9024C109.992 12.8087 109.519 12.7608 108.939 12.7608C108.359 12.7608 107.884 12.8045 107.514 12.8928C107.143 12.9811 106.853 13.1535 106.643 13.4099C106.432 13.6674 106.288 14.0239 106.208 14.4814C106.127 14.9389 106.088 15.5369 106.088 16.2764V18.1374C106.088 18.8642 106.127 19.4568 106.208 19.9133C106.288 20.3708 106.434 20.7283 106.643 20.9848C106.853 21.2423 107.143 21.4168 107.514 21.5115C107.884 21.6051 108.359 21.653 108.939 21.653Z" fill="#111111"></path><path d="M116.18 21.6531L122.532 13.1195H116.255L116.755 10.5254H126.329V12.8184L119.977 21.3136H126.792L126.31 23.9078H116.18V21.652V21.6531Z" fill="#111111"></path><path d="M69.9297 30.7314V44.4852H68.771V30.7314H69.9297Z" fill="#111111"></path><path d="M73.9741 30.7314L82.2991 42.6114V30.7314H83.4578V44.4852H82.3778L74.072 32.6435V44.4852H72.9132V30.7314H73.9741Z" fill="#111111"></path><path d="M86.4425 30.7314H90.8997C92.0255 30.7314 92.9714 30.8506 93.7375 31.089C94.5036 31.3273 95.1218 31.6976 95.5932 32.1998C96.0646 32.702 96.405 33.3362 96.6146 34.1023C96.8243 34.8684 96.9286 35.7803 96.9286 36.8358V38.3616C96.9286 39.4182 96.8232 40.3322 96.6146 41.1047C96.405 41.8772 96.0646 42.5146 95.5932 43.0168C95.1218 43.519 94.5036 43.8893 93.7375 44.1276C92.9714 44.366 92.0255 44.4852 90.8997 44.4852H86.4425V30.7314ZM87.6012 43.4424H90.8997C91.8158 43.4424 92.5852 43.3552 93.2066 43.1817C93.828 43.0083 94.3259 42.721 94.6994 42.322C95.0729 41.923 95.3378 41.3952 95.4942 40.7376C95.6517 40.0811 95.7294 39.2756 95.7294 38.3233V36.8741C95.7294 35.9346 95.6507 35.1387 95.4942 34.4886C95.3368 33.8384 95.0718 33.3139 94.6994 32.9138C94.3259 32.5148 93.829 32.2254 93.2066 32.0445C92.5852 31.8646 91.8158 31.7742 90.8997 31.7742H87.6012V43.4424Z" fill="#111111"></path><path d="M104.507 44.8331C103.485 44.8331 102.645 44.7235 101.984 44.5043C101.323 44.2851 100.803 43.951 100.423 43.4999C100.043 43.0487 99.7781 42.4795 99.6281 41.79C99.477 41.1015 99.4025 40.2929 99.4025 39.3661V30.7314H100.561V39.3661C100.561 40.2418 100.63 40.9664 100.768 41.5389C100.905 42.1124 101.127 42.5656 101.435 42.9008C101.742 43.236 102.148 43.4711 102.652 43.6063C103.156 43.7414 103.775 43.8095 104.508 43.8095C105.28 43.8095 105.922 43.7393 106.431 43.5967C106.942 43.4552 107.348 43.2105 107.649 42.8625C107.95 42.5146 108.159 42.0581 108.277 41.491C108.395 40.9238 108.453 40.2163 108.453 39.3661V30.7314H109.612V39.3661C109.612 40.345 109.527 41.1792 109.356 41.8676C109.186 42.5571 108.901 43.12 108.502 43.5584C108.103 43.9968 107.576 44.3181 106.921 44.5245C106.267 44.7299 105.461 44.8331 104.506 44.8331H104.507Z" fill="#111111"></path><path d="M118.073 37.1445C119.134 37.3254 119.912 37.6754 120.41 38.1968C120.907 38.7182 121.156 39.5205 121.156 40.6015V40.8335C121.156 41.4772 121.067 42.0316 120.891 42.4944C120.714 42.9584 120.422 43.3414 120.017 43.6436C119.612 43.9468 119.087 44.1682 118.447 44.3097C117.805 44.4512 117.026 44.5225 116.11 44.5225H114.274C113.6 44.5225 112.753 44.5097 111.731 44.4842L111.947 43.4414C112.851 43.467 113.63 43.4797 114.284 43.4797H116.11C116.869 43.4797 117.501 43.435 118.005 43.3446C118.508 43.2552 118.908 43.0999 119.202 42.8807C119.497 42.6615 119.703 42.3753 119.82 42.0209C119.938 41.6666 119.997 41.2261 119.997 40.6973C119.997 40.311 119.961 39.9759 119.889 39.6928C119.817 39.4098 119.689 39.1683 119.506 38.9682C119.323 38.7682 119.078 38.6075 118.77 38.4852C118.463 38.3628 118.073 38.2628 117.602 38.1862L114.931 37.7414C114.342 37.6509 113.845 37.5158 113.439 37.336C113.033 37.1562 112.709 36.9274 112.468 36.6497C112.225 36.373 112.052 36.0474 111.947 35.674C111.842 35.3005 111.79 34.8621 111.79 34.3599V34.0896C111.79 33.5746 111.872 33.1075 112.036 32.6894C112.2 32.2712 112.471 31.9137 112.851 31.6168C113.231 31.321 113.724 31.0922 114.333 30.9305C114.942 30.7698 115.697 30.689 116.6 30.689H118.328C118.642 30.689 118.992 30.6922 119.379 30.6985C119.765 30.7049 120.227 30.7145 120.763 30.7273L120.527 31.77C120.029 31.7573 119.587 31.7477 119.201 31.7413C118.815 31.7349 118.465 31.7317 118.151 31.7317H116.56C115.866 31.7317 115.286 31.7775 114.822 31.8668C114.357 31.9573 113.988 32.1052 113.713 32.3116C113.438 32.518 113.241 32.7787 113.124 33.0937C113.006 33.4097 112.948 33.7864 112.948 34.2237C112.948 34.5972 112.98 34.9228 113.046 35.1994C113.11 35.4761 113.232 35.7144 113.408 35.9144C113.585 36.1145 113.823 36.2752 114.126 36.3975C114.427 36.5199 114.813 36.6199 115.284 36.6965L118.072 37.1413L118.073 37.1445Z" fill="#111111"></path><path d="M133.526 30.7314L133.291 31.7742H128.5V44.4852H127.341V31.7742H122.333L122.57 30.7314H133.526Z" fill="#111111"></path><path d="M136.609 38.7096V44.4852H135.45V30.7314H140.103C140.954 30.7314 141.684 30.7995 142.293 30.9347C142.901 31.0698 143.398 31.2858 143.784 31.5816C144.171 31.8785 144.455 32.2711 144.639 32.7595C144.822 33.249 144.913 33.8416 144.913 34.5364V34.9035C144.913 36.0112 144.674 36.855 144.196 37.4338C143.718 38.0137 142.949 38.3936 141.889 38.5734L145.561 44.4841H144.226L140.712 38.7085H136.608L136.609 38.7096ZM143.756 34.6141C143.756 34.048 143.694 33.5809 143.569 33.2138C143.445 32.8467 143.242 32.5573 142.961 32.3445C142.679 32.1317 142.303 31.9838 141.832 31.8998C141.361 31.8157 140.785 31.7742 140.104 31.7742H136.609V37.6658H140.104C140.81 37.6658 141.397 37.6243 141.862 37.5402C142.326 37.4561 142.699 37.3082 142.981 37.0954C143.262 36.8826 143.462 36.5932 143.58 36.2261C143.698 35.859 143.757 35.393 143.757 34.8259V34.613L143.756 34.6141Z" fill="#111111"></path><path d="M148.585 30.7314V44.4852H147.427V30.7314H148.585Z" fill="#111111"></path><path d="M159.523 40.0801H153.26L151.59 44.4842H150.412L155.832 30.7305H157.049L162.449 44.4842H161.211L159.523 40.0801ZM153.632 39.0565H159.13L156.381 31.9286L153.631 39.0565H153.632Z" fill="#111111"></path><path d="M165.432 30.7314V43.4424H172.776L172.54 44.4852H164.273V30.7314H165.432Z" fill="#111111"></path></svg>